<?xml version="1.0" encoding="UTF-8"?>
<!-- Generated by jsxcad -->
<!DOCTYPE svg PUBLIC "-//W3C//DTD SVG 1.1 Tiny//EN" "http://www.w3.org/Graphics/SVG/1.1/DTD/svg11-tiny.dtd">
<svg baseProfile="tiny" height="45.00000000000003mm" width="55.00000000000003mm" viewBox="-27.500000000000014 -22.500000000000014 55.00000000000003 45.00000000000003" version="1.1" stroke="black" stroke-width=".1" fill="none" xmlns="http://www.w3.org/2000/svg">
<path fill="#a52a2a" stroke="#a52a2a" d="M-27.5 22.5 L-27.5 22.5 L27.5 22.5 L27.5 22.5 z"/>
<path fill="#a52a2a" stroke="#a52a2a" d="M-27.5 -22.5 L-27.5 -22.5 L-27.5 22.5 L-27.5 22.5 z"/>
<path fill="#a52a2a" stroke="#a52a2a" d="M27.5 -22.5 L27.5 -22.5 L-27.5 -22.5 L-27.5 -22.5 z"/>
<path fill="#a52a2a" stroke="#a52a2a" d="M27.5 22.5 L27.5 22.5 L27.5 -22.5 L27.5 -22.5 z"/>
<path fill="#a52a2a" stroke="#a52a2a" d="M-27.5 22.499999999999996 L27.5 22.499999999999996 L27.5 -22.499999999999996 L-27.5 -22.499999999999996 z"/>
<path fill="#a52a2a" stroke="#a52a2a" d="M-27.5 22.499999999999996 L-27.5 -22.499999999999996 L27.5 -22.499999999999996 L27.5 22.499999999999996 z"/>
<path fill="#a52a2a" stroke="#a52a2a" d="M-16 -2.8749999999999996 L-16 -2.817307368796961 L-16 -2.5980762113533156 L-10 -2.5980762113533156 L-10 -2.999999999999999 L-16 -2.999999999999999 z"/>
<path fill="#a52a2a" stroke="#a52a2a" d="M-16 -2.5980762113533156 L-16 -2.0989506607381716 L-16 -1.4999999999999996 L-10 -1.4999999999999996 L-10 -2.5980762113533156 z"/>
<path fill="#a52a2a" stroke="#a52a2a" d="M-10 -0.8804379388136473 L-10 -1.4999999999999996 L-16 -1.4999999999999996 L-16 -0.8181818181818179 L-16 0 L-10 0 z"/>
<path fill="#a52a2a" stroke="#a52a2a" d="M-16 0.6818181818181817 L-16 1.4999999999999991 L-16 1.4999999999999996 L-10 1.4999999999999996 L-10 0.2344274466588467 L-10 0 L-16 0 z"/>
<path fill="#a52a2a" stroke="#a52a2a" d="M-10 1.8792576777462942 L-10 1.4999999999999996 L-16 1.4999999999999996 L-16 1.999125550615143 L-16 2.5980762113533156 L-10 2.5980762113533156 z"/>
<path fill="#a52a2a" stroke="#a52a2a" d="M-10 2.614521876739013 L-10 2.5980762113533156 L-16 2.5980762113533156 L-16 2.7807688425563533 L-16 2.999999999999999 L-10 2.999999999999999 L-10 2.848686833027021 z"/>
<path fill="#a52a2a" stroke="#a52a2a" d="M-10 3.0000000000000004 L-16 3.0000000000000004 L-16 2.817307368796962 L-16 2.598076211353317 L-10 2.598076211353317 z"/>
<path fill="#a52a2a" stroke="#a52a2a" d="M-16 -0.6818181818181818 L-16 -1.5000000000000002 L-10 -1.5000000000000002 L-10 -0.3381189031813216 L-10 3.673940397442059e-16 L-16 3.673940397442059e-16 z"/>
<path fill="#a52a2a" stroke="#a52a2a" d="M-10 1.6132448297618462 L-10 2.450961894323345 L-10 2.5980762113533165 L-16 2.5980762113533165 L-16 2.0989506607381743 L-16 1.8415063509461125 L-16 1.4999999999999998 L-10 1.4999999999999998 z"/>
<path fill="#a52a2a" stroke="#a52a2a" d="M-16 1.0334936490538882 L-16 0.8181818181818181 L-16 3.673940397442059e-16 L-10 3.673940397442059e-16 L-10 1.4999999999999996 L-16 1.4999999999999996 z"/>
<path fill="#a52a2a" stroke="#a52a2a" d="M-10 -2.0591548864945652 L-10 -1.5 L-16 -1.5 L-16 -1.5000000000000004 L-16 -1.9991255506151433 L-16 -2.598076211353315 L-10 -2.598076211353315 L-10 -2.5973683457430448 L-10 -2.3166609434305725 z"/>
<path fill="#a52a2a" stroke="#a52a2a" d="M-16 -2.780768842556354 L-16 -2.875 L-16 -3.0000000000000004 L-10 -3.0000000000000004 L-10 -2.5980762113533156 L-16 -2.5980762113533156 z"/>
<path fill="#a52a2a" stroke="#a52a2a" d="M-20 -3.45 L-20 -3.47960329032157 L-20 -4.839957017096724 L-20 -5.750000000000002 L-16 -5.750000000000002 L-16 -2.875000000000002 L-20 -2.875000000000002 z"/>
<path fill="#a52a2a" stroke="#a52a2a" d="M-20 -5.174999999999999 L-20 -3.93329004170506 L-20 -2.874999999999998 L-16 -2.874999999999998 L-16 -5.749999999999999 L-20 -5.749999999999999 z"/>
<path fill="#a52a2a" stroke="#a52a2a" d="M-20 2.9882153168494057 L-20 3.4499999999999984 L-20 4.006569860407206 L-20 5.132642069679029 L-20 5.749999999999999 L-16 5.749999999999999 L-16 2.874999999999998 L-20 2.874999999999998 z"/>
<path fill="#a52a2a" stroke="#a52a2a" d="M-20 -2.5027536674363065 L-20 -1.7249999999999994 L-20 -0.5306001573559834 L-20 1.3386738616843836 L-20 2.874999999999999 L-16 2.874999999999999 L-16 -2.874999999999999 L-20 -2.874999999999999 z"/>
<path fill="#a52a2a" stroke="#a52a2a" d="M-20 1.3401179760798256 L-20 -1.2332662218100876 L-20 -2.875 L-16 -2.875 L-16 2.874999999999999 L-20 2.874999999999999 L-20 1.7249999999999994 z"/>
<path fill="#a52a2a" stroke="#a52a2a" d="M-20 5.175000000000001 L-20 4.227501998236932 L-20 2.8749999999999996 L-16 2.8749999999999996 L-16 5.750000000000001 L-20 5.750000000000001 z"/>
<path fill="#a52a2a" stroke="#a52a2a" d="M-16 2.8749999999999996 L-16 5.75 L-16 2.8749999999999996 L-16 -2.8750000000000004 L-16 -5.75 L-16 -2.8749999999999996 M-16 2.8173073687969614 L-16 3 L-16 2.780768842556354 L-16 2.598076211353316 L-16 1.9991255506151435 L-16 1.4999999999999998 L-16 1.4999999999999993 L-16 0.6818181818181817 L-16 0 L-16 -0.818181818181818 L-16 -1.4999999999999998 L-16 -2.098950660738172 L-16 -2.598076211353316 L-16 -2.8173073687969614 L-16 -2.8749999999999996 L-16 -3 L-16 -2.875 L-16 -2.7807688425563537 L-16 -2.5980762113533156 L-16 -1.9991255506151435 L-16 -1.5000000000000004 L-16 -1.5000000000000004 L-16 -0.6818181818181818 L-16 3.6739403974420594e-16 L-16 0.8181818181818181 L-16 1.0334936490538884 L-16 1.4999999999999998 L-16 1.84150635094611 L-16 2.098950660738172 L-16 2.598076211353316 z"/>
<path fill="#a52a2a" stroke="#a52a2a" d="M-10 -9.999999999999998 L-10 9.999999999999998 L-20 9.999999999999998 L-20 -9.999999999999998 z"/>
<path fill="#a52a2a" stroke="#a52a2a" d="M-10 -10 L-10 -10 L-20 -10 L-20 -10 z"/>
<path fill="#a52a2a" stroke="#a52a2a" d="M-10 -9 L-10 -10 L-20 -10 L-20 -9 z"/>
<path fill="#a52a2a" stroke="#a52a2a" d="M-10 -8.559508646656381 L-10 -9 L-20 -9 L-20 -8.559508646656381 z"/>
<path fill="#a52a2a" stroke="#a52a2a" d="M-10 -7.281152949374527 L-10 -8.559508646656381 L-20 -8.559508646656381 L-20 -7.281152949374527 z"/>
<path fill="#a52a2a" stroke="#a52a2a" d="M-10 -5.290067270632259 L-10 -7.28115294937453 L-20 -7.28115294937453 L-20 -5.290067270632259 z"/>
<path fill="#a52a2a" stroke="#a52a2a" d="M-10 -2.781152949374526 L-10 -5.290067270632258 L-20 -5.290067270632258 L-20 -2.781152949374526 z"/>
<path fill="#a52a2a" stroke="#a52a2a" d="M-10 0 L-10 -2.781152949374526 L-20 -2.781152949374526 L-20 0 z"/>
<path fill="#a52a2a" stroke="#a52a2a" d="M-10 2.781152949374526 L-10 0 L-20 0 L-20 2.781152949374526 z"/>
<path fill="#a52a2a" stroke="#a52a2a" d="M-10 5.290067270632258 L-10 2.781152949374526 L-20 2.781152949374526 L-20 5.290067270632258 z"/>
<path fill="#a52a2a" stroke="#a52a2a" d="M-10 7.28115294937453 L-10 5.290067270632259 L-20 5.290067270632259 L-20 7.28115294937453 z"/>
<path fill="#a52a2a" stroke="#a52a2a" d="M-10 8.559508646656381 L-10 7.281152949374527 L-20 7.281152949374527 L-20 8.559508646656381 z"/>
<path fill="#a52a2a" stroke="#a52a2a" d="M-10 9 L-10 8.559508646656381 L-20 8.559508646656381 L-20 9 z"/>
<path fill="#a52a2a" stroke="#a52a2a" d="M-10 10 L-10 9 L-20 9 L-20 10 z"/>
<path fill="#a52a2a" stroke="#a52a2a" d="M-10 10 L-10 10 L-20 10 L-20 10 z"/>
<path fill="#a52a2a" stroke="#a52a2a" d="M-20 -2.7811529493745266 L-20 -5.2900672706322585 L-20 -7.281152949374527 L-20 -8.559508646656381 L-20 -9 L-20 -10 L-20 -10 L-20 10 L-20 10 L-20 9 L-20 8.559508646656381 L-20 7.281152949374527 L-20 5.2900672706322585 L-20 2.7811529493745266 L-20 0 M-20 2.8749999999999996 L-20 1.3386738616843836 L-20 -0.5306001573559834 L-20 -1.7249999999999996 L-20 -2.5027536674363065 L-20 -2.8749999999999996 L-20 -3.933290041705061 L-20 -5.175 L-20 -5.75 L-20 -4.839957017096724 L-20 -3.47960329032157 L-20 -3.45 L-20 -2.8750000000000004 L-20 -1.2332662218100878 L-20 1.3401179760798259 L-20 1.7249999999999994 L-20 2.8749999999999996 L-20 4.2275019982369315 L-20 5.175 L-20 5.75 L-20 5.13264206967903 L-20 4.006569860407206 L-20 3.4499999999999993 L-20 2.9882153168494066 z"/>
<path fill="#a52a2a" stroke="#a52a2a" d="M-10 -2.7811529493745266 L-10 0 L-10 2.7811529493745266 L-10 5.2900672706322585 L-10 7.281152949374527 L-10 8.559508646656381 L-10 9 L-10 10 L-10 10 L-10 -10 L-10 -10 L-10 -9 L-10 -8.559508646656381 L-10 -7.281152949374527 L-10 -5.2900672706322585 M-10 1.4999999999999998 L-10 3.6739403974420594e-16 L-10 -0.3381189031813216 L-10 -1.5000000000000004 L-10 -2.0591548864945652 L-10 -2.3166609434305725 L-10 -2.5973683457430448 L-10 -2.5980762113533156 L-10 -3 L-10 -2.598076211353316 L-10 -1.4999999999999998 L-10 -0.8804379388136474 L-10 0 L-10 0.23442744665884677 L-10 1.4999999999999998 L-10 1.8792576777462944 L-10 2.598076211353316 L-10 2.6145218767390137 L-10 2.848686833027022 L-10 3 L-10 2.9999999999999996 L-10 2.598076211353316 L-10 2.450961894323342 L-10 1.6132448297618451 z"/>
<path fill="#a52a2a" stroke="#a52a2a" d="M15 -6.499999999999999 L15 -6.061069491128312 L20 -6.061069491128312 L20 -6.1342245759402605 L20 -6.499999999999999 z"/>
<path fill="#a52a2a" stroke="#a52a2a" d="M20 -5.013143216799955 L20 -5.619213502483777 L20 -6.061069491128312 L15 -6.061069491128312 L15 -4.803557961934283 L20 -4.803557961934283 z"/>
<path fill="#a52a2a" stroke="#a52a2a" d="M20 -3.303203175029169 L20 -4.528829097310707 L20 -4.803557961934284 L15 -4.803557961934284 L15 -2.8972993125474993 L20 -2.8972993125474993 L20 -3.215009087445297 z"/>
<path fill="#a52a2a" stroke="#a52a2a" d="M15 -6.061069491128315 L15 -6.5 L20 -6.5 L20 -6.4268449151880525 L20 -6.061069491128315 z"/>
<path fill="#a52a2a" stroke="#a52a2a" d="M20 3.5607391862990605 L20 1.778809435468537 L15 1.778809435468537 L15 3.917125136465165 L20 3.917125136465165 z"/>
<path fill="#a52a2a" stroke="#a52a2a" d="M15 3.917125136465165 L15 5.526411382242489 L20 5.526411382242489 L20 5.2581970079462685 L20 3.917125136465165 z"/>
<path fill="#a52a2a" stroke="#a52a2a" d="M20 1.4889106924234394 L20 1.3823838068052035 L20 -0.4408648444662977 L20 -0.5997443365114639 L15 -0.5997443365114639 L15 1.7788094354685369 L20 1.7788094354685369 z"/>
<path fill="#a52a2a" stroke="#a52a2a" d="M20 -0.9826701658508031 L20 -1.9395559328850316 L20 -2.8972993125474993 L15 -2.8972993125474993 L15 -0.5997443365114639 L20 -0.5997443365114639 z"/>
<path fill="#a52a2a" stroke="#a52a2a" d="M20 6.245506186994882 L20 5.526411382242489 L15 5.526411382242489 L15 6.38932514794536 L20 6.38932514794536 z"/>
<path fill="#a52a2a" stroke="#a52a2a" d="M20 6.389325147945361 L20 6.389325147945361 L20 6.38932514794536 L15 6.38932514794536 L15 6.389325147945361 L20 6.389325147945361 z"/>
<path fill="#a52a2a" stroke="#a52a2a" d="M20 5.670230343192974 L20 5.7217151182746315 L20 6.389325147945362 L15 6.389325147945362 L15 5.526411382242497 L20 5.526411382242497 z"/>
<path fill="#a52a2a" stroke="#a52a2a" d="M20 5.526411382242497 L15 5.526411382242497 L15 3.91712513646517 L20 3.91712513646517 L20 4.068286542904192 L20 4.185339510761392 z"/>
<path fill="#a52a2a" stroke="#a52a2a" d="M20 1.7825522736692327 L20 2.135195385634647 L20 3.9171251364651685 L15 3.9171251364651685 L15 1.7788094354685426 L20 1.7788094354685426 z"/>
<path fill="#a52a2a" stroke="#a52a2a" d="M15 1.7788094354685426 L15 -0.5997443365114604 L20 -0.5997443365114604 L20 -0.2033187078481266 L20 1.7788094354685426 z"/>
<path fill="#a52a2a" stroke="#a52a2a" d="M15 -4.803557961934285 L15 -6.061069491128316 L20 -6.061069491128316 L20 -5.851484236262644 L20 -4.803557961934285 z"/>
<path fill="#a52a2a" stroke="#a52a2a" d="M15 -0.5997443365114604 L15 -2.897299312547495 L20 -2.897299312547495 L20 -2.5143734832081557 L20 -0.8680195807097072 L20 -0.5997443365114604 z"/>
<path fill="#a52a2a" stroke="#a52a2a" d="M20 -4.485848187036486 L20 -3.57562972565038 L20 -2.897299312547495 L15 -2.897299312547495 L15 -4.803557961934284 L20 -4.803557961934284 z"/>
<path fill="#a52a2a" stroke="#a52a2a" d="M15 -6.061069491128313 L15 -6.5 L15 -6.061069491128315 L15 -4.803557961934285 L15 -2.8972993125474953 L15 -0.5997443365114605 L15 1.7788094354685429 L15 3.917125136465169 L15 5.526411382242495 L15 6.389325147945362 L15 6.389325147945361 L15 5.5264113822424905 L15 3.917125136465166 L15 1.7788094354685373 L15 -0.599744336511464 L15 -2.8972993125474997 L15 -4.803557961934285 M15 -3.5418241026128396 L15 -2.2722589869246232 L15 -1.511517366697608 L15 -0.482146721021292 L15 1.4184195481701427 L15 2.9940429926844043 L15 3.883767269704208 L15 3.883767269704208 L15 2.994042992684404 L15 2.541264633689081 L15 1.4184195481701434 L15 -0.3948833007868584 L15 -0.4821467210212895 L15 -0.8561146818668051 L15 -2.272258986924621 L15 -3.5418241026128383 L15 -4 z"/>
<path fill="#a52a2a" stroke="#a52a2a" d="M10 -3.6334592820902714 L10 -3.574899787073646 L10 -3.5418241026128388 L15 -3.5418241026128388 L15 -3.9999999999999987 L10 -3.9999999999999987 z"/>
<path fill="#a52a2a" stroke="#a52a2a" d="M10 -2.526172010062266 L10 -2.3199724558308743 L10 -2.272258986924621 L15 -2.272258986924621 L15 -3.5418241026128365 L10 -3.5418241026128365 z"/>
<path fill="#a52a2a" stroke="#a52a2a" d="M10 -3.5418241026128383 L10 -3.9083648205225683 L10 -4 L15 -4 L15 -3.5418241026128383 z"/>
<path fill="#a52a2a" stroke="#a52a2a" d="M10 1.0383062943318557 L10 1.3390767771925771 L10 1.4184195481701425 L15 1.4184195481701425 L15 -0.4821467210212919 L10 -0.4821467210212919 z"/>
<path fill="#a52a2a" stroke="#a52a2a" d="M10 2.994042992684404 L15 2.994042992684404 L15 1.4184195481701425 L10 1.4184195481701425 L10 2.678918303781552 z"/>
<path fill="#a52a2a" stroke="#a52a2a" d="M10 3.705822414300246 L10 3.8837672697042063 L15 3.8837672697042063 L15 2.9940429926844025 L10 2.9940429926844025 z"/>
<path fill="#a52a2a" stroke="#a52a2a" d="M15 -1.511517366697608 L15 -2.272258986924623 L10 -2.272258986924623 L10 -0.8401691742019581 L10 -0.7403279591306593 L10 -0.48214672102129197 L15 -0.48214672102129197 z"/>
<path fill="#a52a2a" stroke="#a52a2a" d="M15 3.883767269704208 L15 3.883767269704208 L10 3.883767269704208 L10 3.883767269704208 L10 3.883767269704208 L10 3.883767269704208 z"/>
<path fill="#a52a2a" stroke="#a52a2a" d="M15 2.994042992684404 L15 3.883767269704208 L10 3.883767269704208 L10 3.171987848088366 L10 2.994042992684404 z"/>
<path fill="#a52a2a" stroke="#a52a2a" d="M15 -0.3948833007868584 L15 1.4184195481701432 L10 1.4184195481701432 L10 0.7332590537164045 L10 -0.10203346718300293 L10 -0.48214672102128947 L15 -0.48214672102128947 z"/>
<path fill="#a52a2a" stroke="#a52a2a" d="M15 2.5412646336890807 L15 2.9940429926844034 L10 2.9940429926844034 L10 2.8437062934424704 L10 1.7335442370729954 L10 1.4184195481701432 L15 1.4184195481701432 z"/>
<path fill="#a52a2a" stroke="#a52a2a" d="M10 -2.272258986924625 L10 -3.287911079475195 L10 -3.54182410261284 L15 -3.54182410261284 L15 -2.272258986924625 z"/>
<path fill="#a52a2a" stroke="#a52a2a" d="M15 -0.8561146818668051 L15 -0.48214672102128947 L10 -0.48214672102128947 L10 -1.8492074123967543 L10 -1.9142365337439546 L10 -2.2722589869246206 L15 -2.2722589869246206 z"/>
<path fill="#a52a2a" stroke="#a52a2a" d="M10 9.999999999999998 L10 -9.999999999999998 L20 -9.999999999999998 L20 9.999999999999998 z"/>
<path fill="#a52a2a" stroke="#a52a2a" d="M10 10 L10 10 L20 10 L20 10 z"/>
<path fill="#a52a2a" stroke="#a52a2a" d="M10 9 L10 10 L20 10 L20 9 z"/>
<path fill="#a52a2a" stroke="#a52a2a" d="M10 8.559508646656381 L10 9 L20 9 L20 8.559508646656381 z"/>
<path fill="#a52a2a" stroke="#a52a2a" d="M10 7.281152949374527 L10 8.559508646656381 L20 8.559508646656381 L20 7.281152949374527 z"/>
<path fill="#a52a2a" stroke="#a52a2a" d="M10 5.290067270632259 L10 7.28115294937453 L20 7.28115294937453 L20 5.290067270632259 z"/>
<path fill="#a52a2a" stroke="#a52a2a" d="M10 2.781152949374526 L10 5.290067270632258 L20 5.290067270632258 L20 2.781152949374526 z"/>
<path fill="#a52a2a" stroke="#a52a2a" d="M10 0 L10 2.781152949374526 L20 2.781152949374526 L20 0 z"/>
<path fill="#a52a2a" stroke="#a52a2a" d="M10 -2.781152949374526 L10 0 L20 0 L20 -2.781152949374526 z"/>
<path fill="#a52a2a" stroke="#a52a2a" d="M10 -5.290067270632258 L10 -2.781152949374526 L20 -2.781152949374526 L20 -5.290067270632258 z"/>
<path fill="#a52a2a" stroke="#a52a2a" d="M10 -7.28115294937453 L10 -5.290067270632259 L20 -5.290067270632259 L20 -7.28115294937453 z"/>
<path fill="#a52a2a" stroke="#a52a2a" d="M10 -8.559508646656381 L10 -7.281152949374527 L20 -7.281152949374527 L20 -8.559508646656381 z"/>
<path fill="#a52a2a" stroke="#a52a2a" d="M10 -9 L10 -8.559508646656381 L20 -8.559508646656381 L20 -9 z"/>
<path fill="#a52a2a" stroke="#a52a2a" d="M10 -10 L10 -9 L20 -9 L20 -10 z"/>
<path fill="#a52a2a" stroke="#a52a2a" d="M10 -10 L10 -10 L20 -10 L20 -10 z"/>
<path fill="#a52a2a" stroke="#a52a2a" d="M20 2.7811529493745266 L20 5.2900672706322585 L20 7.281152949374527 L20 8.559508646656381 L20 9 L20 10 L20 10 L20 -10 L20 -10 L20 -9 L20 -8.559508646656381 L20 -7.281152949374527 L20 -5.2900672706322585 L20 -2.7811529493745266 L20 0 M20 -3.215009087445297 L20 -2.8972993125474997 L20 -1.9395559328850318 L20 -0.9826701658508032 L20 -0.599744336511464 L20 -0.44086484446629776 L20 1.3823838068052037 L20 1.4889106924234397 L20 1.7788094354685373 L20 3.560739186299061 L20 3.917125136465166 L20 5.258197007946269 L20 5.5264113822424905 L20 6.2455061869948825 L20 6.389325147945361 L20 6.389325147945361 L20 6.389325147945361 L20 6.389325147945362 L20 5.721715118274631 L20 5.670230343192973 L20 5.526411382242495 L20 4.1853395107613895 L20 4.0682865429041914 L20 3.917125136465169 L20 2.135195385634647 L20 1.7825522736692332 L20 1.7788094354685429 L20 -0.2033187078481266 L20 -0.5997443365114605 L20 -0.8680195807097072 L20 -2.514373483208156 L20 -2.8972993125474953 L20 -3.5756297256503804 L20 -4.485848187036486 L20 -4.803557961934285 L20 -5.8514842362626425 L20 -6.061069491128315 L20 -6.4268449151880525 L20 -6.5 L20 -6.1342245759402605 L20 -6.061069491128313 L20 -5.619213502483777 L20 -5.013143216799956 L20 -4.803557961934285 L20 -4.528829097310707 L20 -3.3032031750291693 z"/>
<path fill="#a52a2a" stroke="#a52a2a" d="M10 2.7811529493745266 L10 0 L10 -2.7811529493745266 L10 -5.2900672706322585 L10 -7.281152949374527 L10 -8.559508646656381 L10 -9 L10 -10 L10 -10 L10 10 L10 10 L10 9 L10 8.559508646656381 L10 7.281152949374527 L10 5.2900672706322585 M10 -4 L10 -3.9083648205225674 L10 -3.5418241026128383 L10 -3.2879110794751947 L10 -2.272258986924621 L10 -1.9142365337439546 L10 -1.8492074123967546 L10 -0.4821467210212895 L10 -0.10203346718300293 L10 0.7332590537164045 L10 1.4184195481701434 L10 1.7335442370729954 L10 2.843706293442471 L10 2.994042992684404 L10 3.1719878480883645 L10 3.883767269704208 L10 3.883767269704208 L10 3.883767269704208 L10 3.883767269704208 L10 3.705822414300247 L10 2.9940429926844043 L10 2.678918303781552 L10 1.4184195481701427 L10 1.3390767771925771 L10 1.0383062943318557 L10 -0.482146721021292 L10 -0.7403279591306594 L10 -0.8401691742019582 L10 -2.2722589869246232 L10 -2.3199724558308756 L10 -2.5261720100622664 L10 -3.5418241026128396 L10 -3.574899787073646 L10 -3.6334592820902714 z"/>
<path fill="#c0c0c0" stroke="#c0c0c0" d="M-16 -5.750000000000001 L-21 -5.750000000000001 L-21 -2.8750000000000004 L-16 -2.8750000000000004 z"/>
<path fill="#c0c0c0" stroke="#c0c0c0" d="M-16 -2.874999999999998 L-21 -2.874999999999998 L-21 -5.749999999999999 L-16 -5.749999999999999 z"/>
<path fill="#c0c0c0" stroke="#c0c0c0" d="M-16 5.749999999999999 L-21 5.749999999999999 L-21 2.874999999999998 L-16 2.874999999999998 z"/>
<path fill="#c0c0c0" stroke="#c0c0c0" d="M-16 2.874999999999999 L-21 2.874999999999999 L-21 -2.874999999999999 L-16 -2.874999999999999 z"/>
<path fill="#c0c0c0" stroke="#c0c0c0" d="M-16 -2.875 L-21 -2.875 L-21 2.874999999999999 L-16 2.874999999999999 z"/>
<path fill="#c0c0c0" stroke="#c0c0c0" d="M-16 2.8750000000000004 L-21 2.8750000000000004 L-21 5.75 L-16 5.75 z"/>
<path fill="#c0c0c0" stroke="#c0c0c0" d="M-16 -5.75 L-16 -2.8750000000000004 L-16 2.8749999999999996 L-16 5.75 L-16 2.8749999999999996 L-16 -2.8749999999999996 z"/>
<path fill="#c0c0c0" stroke="#c0c0c0" d="M-21 -5.75 L-21 -2.8749999999999996 L-21 2.8749999999999996 L-21 5.75 L-21 2.8749999999999996 L-21 -2.8750000000000004 z"/>
<path fill="#000000" stroke="#000000" d="M-10 -2.598076211353315 L-21 -2.598076211353315 L-21 -2.9999999999999996 L-10 -2.9999999999999996 z"/>
<path fill="#000000" stroke="#000000" d="M-10 -1.4999999999999996 L-21 -1.4999999999999996 L-21 -2.5980762113533156 L-10 -2.5980762113533156 z"/>
<path fill="#000000" stroke="#000000" d="M-10 0 L-21 0 L-21 -1.4999999999999996 L-10 -1.4999999999999996 z"/>
<path fill="#000000" stroke="#000000" d="M-10 1.4999999999999996 L-21 1.4999999999999996 L-21 0 L-10 0 z"/>
<path fill="#000000" stroke="#000000" d="M-10 2.5980762113533156 L-21 2.5980762113533156 L-21 1.4999999999999996 L-10 1.4999999999999996 z"/>
<path fill="#000000" stroke="#000000" d="M-10 2.9999999999999996 L-21 2.9999999999999996 L-21 2.598076211353315 L-10 2.598076211353315 z"/>
<path fill="#000000" stroke="#000000" d="M-10 2.598076211353316 L-21 2.598076211353316 L-21 3.0000000000000004 L-10 3.0000000000000004 z"/>
<path fill="#000000" stroke="#000000" d="M-10 -1.5000000000000002 L-21 -1.5000000000000002 L-21 3.673940397442059e-16 L-10 3.673940397442059e-16 z"/>
<path fill="#000000" stroke="#000000" d="M-10 1.5000000000000007 L-21 1.5000000000000007 L-21 2.5980762113533182 L-10 2.5980762113533182 z"/>
<path fill="#000000" stroke="#000000" d="M-10 3.673940397442059e-16 L-21 3.673940397442059e-16 L-21 1.4999999999999996 L-10 1.4999999999999996 z"/>
<path fill="#000000" stroke="#000000" d="M-10 -2.598076211353315 L-21 -2.598076211353315 L-21 -1.5000000000000002 L-10 -1.5000000000000002 z"/>
<path fill="#000000" stroke="#000000" d="M-10 -3 L-21 -3 L-21 -2.598076211353316 L-10 -2.598076211353316 z"/>
<path fill="#000000" stroke="#000000" d="M-10 -2.598076211353316 L-10 -3 L-10 -2.5980762113533156 L-10 -1.5000000000000004 L-10 3.6739403974420594e-16 L-10 1.4999999999999998 L-10 2.598076211353316 L-10 3 L-10 2.598076211353316 L-10 1.4999999999999998 L-10 0 L-10 -1.4999999999999998 z"/>
<path fill="#000000" stroke="#000000" d="M-21 -2.598076211353316 L-21 -1.4999999999999998 L-21 0 L-21 1.4999999999999998 L-21 2.598076211353316 L-21 3 L-21 2.598076211353316 L-21 1.4999999999999998 L-21 3.6739403974420594e-16 L-21 -1.5000000000000004 L-21 -2.5980762113533156 L-21 -3 z"/>
<path fill="#000000" stroke="#000000" d="M-10 -3.5418241026128388 L-10 -3.9999999999999996 L15 -3.9999999999999996 L15 -3.5418241026128388 z"/>
<path fill="#000000" stroke="#000000" d="M-10 -2.2722589869246215 L-10 -3.541824102612839 L15 -3.541824102612839 L15 -2.2722589869246215 z"/>
<path fill="#000000" stroke="#000000" d="M-10 -4 L-10 -3.5418241026128388 L15 -3.5418241026128388 L15 -4 z"/>
<path fill="#000000" stroke="#000000" d="M-10 1.4184195481701425 L-10 -0.48214672102129197 L15 -0.48214672102129197 L15 1.4184195481701425 z"/>
<path fill="#000000" stroke="#000000" d="M-10 2.994042992684404 L-10 1.4184195481701425 L15 1.4184195481701425 L15 2.994042992684404 z"/>
<path fill="#000000" stroke="#000000" d="M-10 3.8837672697042067 L-10 2.9940429926844034 L15 2.9940429926844034 L15 3.8837672697042067 z"/>
<path fill="#000000" stroke="#000000" d="M-10 -0.48214672102129197 L-10 -2.272258986924623 L15 -2.272258986924623 L15 -0.48214672102129197 z"/>
<path fill="#000000" stroke="#000000" d="M-10 3.883767269704208 L-10 3.883767269704208 L15 3.883767269704208 L15 3.883767269704208 z"/>
<path fill="#000000" stroke="#000000" d="M-10 2.9940429926844057 L-10 3.883767269704208 L15 3.883767269704208 L15 2.9940429926844057 z"/>
<path fill="#000000" stroke="#000000" d="M-10 -0.4821467210212894 L-10 1.4184195481701432 L15 1.4184195481701432 L15 -0.4821467210212894 z"/>
<path fill="#000000" stroke="#000000" d="M-10 1.4184195481701432 L-10 2.9940429926844034 L15 2.9940429926844034 L15 1.4184195481701432 z"/>
<path fill="#000000" stroke="#000000" d="M-10 -3.5418241026128414 L-10 -2.2722589869246232 L15 -2.2722589869246232 L15 -3.5418241026128414 z"/>
<path fill="#000000" stroke="#000000" d="M-10 -2.2722589869246206 L-10 -0.48214672102128947 L15 -0.48214672102128947 L15 -2.2722589869246206 z"/>
<path fill="#000000" stroke="#000000" d="M15 -2.2722589869246232 L15 -3.5418241026128396 L15 -4 L15 -3.5418241026128383 L15 -2.272258986924621 L15 -0.4821467210212895 L15 1.4184195481701434 L15 2.994042992684404 L15 3.883767269704208 L15 3.883767269704208 L15 2.9940429926844043 L15 1.4184195481701427 L15 -0.482146721021292 z"/>
<path fill="#000000" stroke="#000000" d="M-10 -3.5418241026128396 L-10 -2.2722589869246232 L-10 -0.482146721021292 L-10 1.4184195481701427 L-10 2.9940429926844043 L-10 3.883767269704208 L-10 3.883767269704208 L-10 2.994042992684404 L-10 1.4184195481701434 L-10 -0.4821467210212895 L-10 -2.272258986924621 L-10 -3.5418241026128383 L-10 -4 z"/>
<path fill="#000000" stroke="#000000" d="M15 -6.061069491128312 L15 -6.499999999999999 L21 -6.499999999999999 L21 -6.061069491128312 z"/>
<path fill="#000000" stroke="#000000" d="M15 -4.803557961934283 L15 -6.061069491128312 L21 -6.061069491128312 L21 -4.803557961934283 z"/>
<path fill="#000000" stroke="#000000" d="M15 -2.897299312547499 L15 -4.803557961934284 L21 -4.803557961934284 L21 -2.897299312547499 z"/>
<path fill="#000000" stroke="#000000" d="M15 -6.5 L15 -6.061069491128315 L21 -6.061069491128315 L21 -6.5 z"/>
<path fill="#000000" stroke="#000000" d="M15 3.9171251364651654 L15 1.7788094354685369 L21 1.7788094354685369 L21 3.9171251364651654 z"/>
<path fill="#000000" stroke="#000000" d="M15 5.526411382242489 L15 3.917125136465164 L21 3.917125136465164 L21 5.526411382242489 z"/>
<path fill="#000000" stroke="#000000" d="M15 1.778809435468537 L15 -0.5997443365114639 L21 -0.5997443365114639 L21 1.778809435468537 z"/>
<path fill="#000000" stroke="#000000" d="M15 -0.5997443365114639 L15 -2.8972993125474993 L21 -2.8972993125474993 L21 -0.5997443365114639 z"/>
<path fill="#000000" stroke="#000000" d="M15 6.38932514794536 L15 5.526411382242489 L21 5.526411382242489 L21 6.38932514794536 z"/>
<path fill="#000000" stroke="#000000" d="M15 6.389325147945361 L15 6.38932514794536 L21 6.38932514794536 L21 6.389325147945361 z"/>
<path fill="#000000" stroke="#000000" d="M15 5.526411382242496 L15 6.389325147945362 L21 6.389325147945362 L21 5.526411382242496 z"/>
<path fill="#000000" stroke="#000000" d="M15 3.9171251364651694 L15 5.5264113822424985 L21 5.5264113822424985 L21 3.9171251364651694 z"/>
<path fill="#000000" stroke="#000000" d="M15 1.7788094354685426 L15 3.917125136465168 L21 3.917125136465168 L21 1.7788094354685426 z"/>
<path fill="#000000" stroke="#000000" d="M15 -0.5997443365114604 L15 1.7788094354685426 L21 1.7788094354685426 L21 -0.5997443365114604 z"/>
<path fill="#000000" stroke="#000000" d="M15 -6.061069491128316 L15 -4.803557961934285 L21 -4.803557961934285 L21 -6.061069491128316 z"/>
<path fill="#000000" stroke="#000000" d="M15 -2.897299312547495 L15 -0.5997443365114604 L21 -0.5997443365114604 L21 -2.897299312547495 z"/>
<path fill="#000000" stroke="#000000" d="M15 -4.803557961934284 L15 -2.897299312547495 L21 -2.897299312547495 L21 -4.803557961934284 z"/>
<path fill="#000000" stroke="#000000" d="M21 -6.061069491128313 L21 -6.5 L21 -6.061069491128315 L21 -4.803557961934285 L21 -2.8972993125474953 L21 -0.5997443365114605 L21 1.7788094354685429 L21 3.917125136465169 L21 5.526411382242495 L21 6.389325147945362 L21 6.389325147945361 L21 5.5264113822424905 L21 3.917125136465166 L21 1.7788094354685373 L21 -0.599744336511464 L21 -2.8972993125474997 L21 -4.803557961934285 z"/>
<path fill="#000000" stroke="#000000" d="M15 -6.5 L15 -6.061069491128313 L15 -4.803557961934285 L15 -2.8972993125474997 L15 -0.599744336511464 L15 1.7788094354685373 L15 3.917125136465166 L15 5.5264113822424905 L15 6.389325147945361 L15 6.389325147945362 L15 5.526411382242495 L15 3.917125136465169 L15 1.7788094354685429 L15 -0.5997443365114605 L15 -2.8972993125474953 L15 -4.803557961934285 L15 -6.061069491128315 z"/>
</svg>